<svg height="383.999pt" viewBox="1 1 383.999 383.999" width="383.999pt" xmlns="http://www.w3.org/2000/svg"><path d="m320.164062 82.769531c-9.058593 3.921875-14.351562 9.917969-30.519531 9.917969-24.007812 0-24.007812-13.238281-48.015625-13.238281-23.988281 0-23.988281 13.238281-47.980468 13.238281-9.195313.117188-18.214844-2.546875-25.871094-7.644531l-22.121094 20.886719h-39.726562v39.726562h-79.445313v33.101562c0 10.96875 8.890625 19.863282 19.859375 19.863282h59.585938v185.378906h39.726562v-105.929688h26.480469v105.929688h39.726562v-105.929688h92.6875v105.929688h39.726563v-278.070312zm0 0" fill="#d3843d"/><path d="m26.484375 13.242188h79.445313v132.414062h-79.445313zm0 0" fill="#fdbd40"/><g fill="#143441"><path d="m33.101562 46.34375h13.242188v13.242188h-13.242188zm0 0"/><path d="m86.070312 46.34375h13.238282v13.242188h-13.238282zm0 0"/><path d="m89.742188 118.058594-7.347657-11.015625-16.1875 10.792969-16.1875-10.792969-7.347656 11.015625 16.914063 11.277344v9.699218h13.242187v-9.699218zm0 0"/></g><path d="m344.277344 105.929688h13.238281c14.628906 0 26.484375 11.859374 26.484375 26.484374v92.691407h-13.242188c-14.625 0-26.480468-11.859375-26.480468-26.484375zm0 0" fill="#fdbd40"/><path d="m241.628906 79.449219c24.007813 0 24.007813 13.238281 48.015625 13.238281 16.167969 0 21.460938-5.996094 30.519531-9.917969l-47.472656-45.601562c-15.261718-14.246094-38.949218-14.246094-54.210937 0l-50.707031 47.875c7.65625 5.097656 16.675781 7.761719 25.875 7.644531 23.992187 0 23.992187-13.238281 47.980468-13.238281zm0 0" fill="#fdbd40"/><path d="m26.484375 39.722656h-6.621094c-10.96875 0-19.863281-8.890625-19.863281-19.859375v-19.863281l26.484375 13.242188zm0 0" fill="#d3843d"/><path d="m105.929688 39.722656h6.621093c10.972657 0 19.863281-8.890625 19.863281-19.859375v-19.863281l-26.484374 13.242188zm0 0" fill="#d3843d"/></svg>