<svg height="383pt" viewBox="1 -92 383.999 383" width="383pt" xmlns="http://www.w3.org/2000/svg"><path d="m304.550781 40.226562h-225.101562l-39.726563-39.726562-26.480468 26.484375 66.207031 66.207031h-79.449219v39.722656h264.828125c-36.566406 0-66.207031 29.640626-66.207031 66.207032h105.929687c43.878907 0 79.449219-35.570313 79.449219-79.449219 0-43.875-35.570312-79.445313-79.449219-79.445313zm0 0" fill="#55b56a"/><path d="m139.035156 40.226562c0 14.625-11.855468 26.480469-26.484375 26.480469-14.625 0-26.480469-11.855469-26.480469-26.480469 0-14.628906 11.855469-26.484374 26.480469-26.484374 14.628907 0 26.484375 11.855468 26.484375 26.484374zm0 0" fill="#fdbd40"/><path d="m172.136719 73.328125c-3.652344 0-6.617188 2.960937-6.621094 6.617187v.003907 46.34375h-39.722656v-13.242188h19.863281c3.65625.003907 6.621094-2.960937 6.621094-6.617187v-26.484375c0-3.65625-2.964844-6.621094-6.621094-6.621094s-6.621094 2.964844-6.621094 6.621094v19.863281h-19.863281c-3.65625-.003906-6.621094 2.960938-6.621094 6.617188v26.484374c0 3.65625 2.960938 6.621094 6.617188 6.621094h.003906 52.964844c3.65625 0 6.621093-2.960937 6.621093-6.617187 0 0 0 0 0-.003907v-52.964843c0-3.65625-2.960937-6.621094-6.617187-6.621094 0 0 0 0-.003906 0zm0 0" fill="#2f9342"/><path d="m311.171875 126.292969h-39.722656v-46.34375c0-3.65625-2.964844-6.621094-6.621094-6.621094s-6.621094 2.960937-6.621094 6.621094v46.34375h-39.722656v-13.242188h19.859375c3.65625.003907 6.621094-2.960937 6.621094-6.617187v-26.484375c0-3.65625-2.964844-6.621094-6.621094-6.621094s-6.621094 2.964844-6.621094 6.621094v19.863281h-19.859375c-3.65625-.003906-6.621093 2.960938-6.621093 6.617188v26.484374c-.003907 3.65625 2.960937 6.621094 6.617187 6.621094h99.3125c3.65625 0 6.621094-2.964844 6.621094-6.621094s-2.964844-6.621093-6.621094-6.621093zm0 0" fill="#2f9342"/><path d="m19.863281 33.605469-6.621093 26.480469 26.480468-6.621094zm0 0" fill="#dd3e46"/><path d="m105.929688 33.605469h13.242187v13.238281h-13.242187zm0 0" fill="#143441"/><g fill="#3a8e4a"><path d="m158.894531 40.226562 19.863281-26.484374 19.863282 26.484374zm0 0"/><path d="m211.863281 40.226562 19.859375-26.484374 19.863282 26.484374zm0 0"/><path d="m264.828125 40.226562 19.863281-26.484374 19.859375 26.484374zm0 0"/></g></svg>