<svg height="383pt" viewBox="1 -66 383.999 383" width="383pt" xmlns="http://www.w3.org/2000/svg"><path d="m105.929688.5h-66.207032c-21.9375 0-39.722656 17.785156-39.722656 39.722656v145.65625c0 14.625 11.855469 26.484375 26.484375 26.484375h39.722656v-39.726562h-26.484375v-39.722657h66.207032v119.171876h39.726562v-66.207032h26.480469v66.207032h39.726562v-66.207032h52.964844v66.207032h39.722656v-231.722657c0-10.972656-8.890625-19.863281-19.859375-19.863281zm0 0" fill="#aabece"/><path d="m304.550781 26.980469v26.484375h33.105469c3.65625 0 6.621094 2.964844 6.621094 6.621094v46.34375h26.480468v-52.964844c0-14.625-11.855468-26.480469-26.480468-26.480469h-39.726563zm0 0" fill="#7d8d9c"/><g fill="#5a6470"><path d="m344.277344 106.429688h-13.242188v39.726562l13.242188-13.242188 13.242187 26.480469 13.238281-26.480469 13.242188 13.242188v-39.726562zm0 0"/><path d="m33.101562 73.328125h13.242188v13.238281h-13.242188zm0 0"/><path d="m139.035156 113.050781c-.484375 0-.964844-.054687-1.4375-.15625l-59.585937-13.242187c-3.566407-.800782-5.808594-4.339844-5.007813-7.910156.796875-3.554688 4.320313-5.796876 7.878906-5.015626l51.53125 11.449219v-64.574219h-52.964843c-3.65625 0-6.621094-2.960937-6.621094-6.621093 0-3.65625 2.964844-6.621094 6.621094-6.621094h59.585937c3.65625 0 6.621094 2.964844 6.621094 6.621094v79.449219c0 3.65625-2.964844 6.621093-6.621094 6.621093zm0 0"/><path d="m211.863281 192.5c-3.65625 0-6.621093-2.964844-6.621093-6.621094v-13.242187c0-3.65625 2.964843-6.621094 6.621093-6.621094s6.621094 2.964844 6.621094 6.621094v13.242187c0 3.65625-2.964844 6.621094-6.621094 6.621094zm0 0"/><path d="m264.828125 192.5c-3.65625 0-6.621094-2.964844-6.621094-6.621094v-13.242187c0-3.65625 2.964844-6.621094 6.621094-6.621094s6.621094 2.964844 6.621094 6.621094v13.242187c0 3.65625-2.964844 6.621094-6.621094 6.621094zm0 0"/><path d="m6.621094 166.015625h13.242187v13.242187h-13.242187zm0 0"/><path d="m6.621094 139.535156h13.242187v13.238282h-13.242187zm0 0"/></g></svg>