<svg height="383pt" viewBox="-26 1 383 383.999" width="383pt" xmlns="http://www.w3.org/2000/svg"><path d="m291.808594 158.894531v-39.722656h-132.414063v79.449219c0 14.625 11.859375 26.484375 26.484375 26.484375h145.65625zm0 0" fill="#f98c96"/><path d="m126.292969 145.65625c-3.65625 0-6.621094-2.964844-6.621094-6.621094v-139.035156h-79.449219v52.964844h39.726563v105.929687c0 14.628907 11.855469 26.484375 26.480469 26.484375h52.964843v-39.722656zm0 0" fill="#f6bf9b"/><path d="m238.84375 225.105469v132.414062h-26.484375c-7.3125 0-13.238281 5.925781-13.238281 13.238281v13.242188h66.207031v-158.894531zm0 0" fill="#e9686a"/><path d="m185.878906 225.105469v52.964843h-66.207031v39.722657c0 7.3125 5.929687 13.242187 13.242187 13.242187h13.238282v-26.484375h66.207031v-79.449219h-26.480469zm0 0" fill="#e9686a"/><path d="m40.222656 26.484375v66.207031s-39.722656 0-39.722656-33.105468c0-33.101563 39.722656-33.101563 39.722656-33.101563zm0 0" fill="#fdbd40"/><path d="m73.328125 19.863281h13.238281v13.238281h-13.238281zm0 0" fill="#0d2436"/><path d="m212.359375 205.242188h-26.480469c-3.65625 0-6.621094-2.964844-6.621094-6.621094s2.964844-6.621094 6.621094-6.621094h26.480469c23.03125-.027344 42.554687-16.9375 45.875-39.722656h-72.355469c-3.65625 0-6.621094-2.964844-6.621094-6.621094 0-3.660156 2.964844-6.621094 6.621094-6.621094h79.449219c3.652344-.003906 6.617187 2.957032 6.621094 6.609375v.011719c-.035157 32.894531-26.695313 59.550781-59.589844 59.585938zm0 0" fill="#e9686a"/></svg>