<svg height="384pt" viewBox="-13 0 384 384" width="384pt" xmlns="http://www.w3.org/2000/svg"><path d="m352.992188 368.496094-61.683594-30.839844v-139.035156c0-29.253906-23.710938-52.964844-52.964844-52.964844h-198.621094v119.171875c0 14.625 11.859375 26.484375 26.484375 26.484375h92.6875v52.964844h-92.6875c-14.625 0-26.484375 11.855468-26.484375 26.480468v13.242188h158.898438v-92.6875h39.722656v46.34375c0 25.59375 20.75 46.34375 46.34375 46.34375h64.644531c4.519531 0 8.183594-3.664062 8.183594-8.183594 0-3.097656-1.75-5.933594-4.523437-7.320312zm0 0" fill="#d3843d"/><path d="m39.722656 39.722656h79.449219v105.933594h-79.449219zm0 0" fill="#fdbd40"/><path d="m66.207031 39.722656h-26.484375l-26.480468-39.722656h52.964843zm0 0" fill="#d3843d"/><path d="m119.171875 39.722656h-26.484375v-39.722656h52.96875zm0 0" fill="#d3843d"/><path d="m46.34375 59.585938h13.242188v13.242187h-13.242188zm0 0" fill="#5a6470"/><path d="m99.308594 59.585938h13.242187v13.242187h-13.242187zm0 0" fill="#5a6470"/><path d="m98.804688 103.394531c-1.023438-2.472656-3.4375-4.085937-6.117188-4.085937h-26.480469c-3.65625 0-6.621093 2.964844-6.621093 6.621094 0 1.757812.699218 3.441406 1.9375 4.679687l11.304687 11.304687v23.742188c0 3.652344 2.960937 6.621094 6.617187 6.621094s6.621094-2.964844 6.621094-6.621094v-23.742188l11.304688-11.300781c1.894531-1.894531 2.460937-4.742187 1.433594-7.21875zm0 0" fill="#d3843d"/><g fill="#ad6327"><path d="m13.242188 238.34375h26.480468v26.484375h-26.480468c-7.3125 0-13.242188-5.929687-13.242188-13.242187s5.929688-13.242188 13.242188-13.242188zm0 0"/><path d="m119.171875 271.449219h-39.726563c-10.96875 0-19.859374-8.894531-19.859374-19.863281s8.890624-19.863282 19.859374-19.863282h6.621094v-33.101562c0-3.65625 2.964844-6.621094 6.621094-6.621094s6.621094 2.964844 6.621094 6.621094v39.722656c.003906 3.65625-2.960938 6.621094-6.617188 6.621094h-13.246094c-3.65625 0-6.617187 2.964844-6.617187 6.621094s2.960937 6.621093 6.617187 6.621093h33.105469v-59.585937c0-3.65625 2.964844-6.621094 6.621094-6.621094s6.621094 2.964844 6.621094 6.621094v66.207031c0 3.65625-2.960938 6.621094-6.617188 6.621094zm0 0"/><path d="m158.894531 297.933594c-3.652343 0-6.617187-2.964844-6.617187-6.617188 0-.003906 0-.003906 0-.003906v-33.105469c.023437-21.925781 17.792968-39.699219 39.722656-39.722656h46.34375c3.65625 0 6.621094 2.964844 6.621094 6.621094s-2.964844 6.621093-6.621094 6.621093h-46.34375c-14.621094.015626-26.46875 11.863282-26.484375 26.484376v33.101562c0 3.65625-2.960937 6.621094-6.617187 6.621094 0 0 0 0-.003907 0zm0 0"/></g></svg>