<svg height="384pt" viewBox="0 0 384.00891 384" width="384pt" xmlns="http://www.w3.org/2000/svg"><path d="m66.207031.00390625v185.37499975l-66.207031-39.722656v52.964844l66.207031 39.722656v145.652344h119.167969v-383.99218775zm0 0" fill="#d3843d"/><path d="m185.375 211.859375h-39.722656v39.722656h39.722656v52.964844h-39.722656v39.726563h185.371094v-132.414063zm0 0" fill="#bcd0dd"/><path d="m344.265625 39.726562c-21.9375 0-39.722656 17.785157-39.722656 39.722657h-92.6875c.070312-22.007813-17.714844-39.90625-39.722657-39.976563-22.007812-.070312-39.90625 17.714844-39.976562 39.722656-.070312 22.007813 17.714844 39.90625 39.722656 39.976563 4.597656.015625 9.164063-.765625 13.496094-2.308594v94.996094h145.648438v-94.996094c20.671874 7.324219 43.367187-3.5 50.6875-24.171875 7.320312-20.671875-3.5-43.367187-24.175782-50.6875-4.257812-1.507812-8.746094-2.277344-13.269531-2.277344zm0 0" fill="#ccdfea"/><path d="m258.292969 132.414062c13.238281 0 33.46875 41.195313 23.90625 47.078126-7.402344 3.796874-15.589844 5.8125-23.90625 5.886718h-.09375c-8.316407-.074218-16.503907-2.089844-23.90625-5.886718-9.5625-5.882813 10.664062-47.078126 23.90625-47.078126zm0 0" fill="#394d5c"/><path d="m218.476562 112.554688h13.242188v13.238281h-13.242188zm0 0" fill="#394d5c"/><path d="m284.679688 112.554688h13.242187v13.238281h-13.242187zm0 0" fill="#394d5c"/><path d="m331.023438 291.308594h13.242187c14.625 0 26.484375 11.855468 26.484375 26.480468s-11.859375 26.484376-26.484375 26.484376h-13.242187zm0 0" fill="#394d5c"/><g fill="#fdbd40"><path d="m86.066406 311.167969h13.242188v66.207031h-13.242188zm0 0"/><path d="m86.066406 271.445312h13.242188v26.480469h-13.242188zm0 0"/><path d="m86.066406 6.625h13.242188v158.890625h-13.242188zm0 0"/><path d="m112.550781 152.277344h13.238281v52.960937h-13.238281zm0 0"/><path d="m112.550781 218.480469h13.238281v13.242187h-13.238281zm0 0"/><path d="m112.550781 244.964844h13.238281v26.480468h-13.238281zm0 0"/><path d="m152.273438 132.414062h13.238281v33.101563h-13.238281zm0 0"/></g><path d="m185.375 86.070312c-3.65625 0-6.621094-2.960937-6.621094-6.617187 0-3.660156-2.964844-6.621094-6.621094-6.621094s-6.621093 2.960938-6.621093 6.621094c0 3.65625-2.964844 6.617187-6.621094 6.617187s-6.621094-2.960937-6.621094-6.617187c0-10.972656 8.894531-19.863281 19.863281-19.863281s19.863282 8.890625 19.863282 19.863281c0 3.652344-2.964844 6.617187-6.617188 6.617187-.003906 0-.003906 0-.003906 0zm0 0" fill="#394d5c"/><path d="m357.507812 86.070312c-3.65625 0-6.621093-2.960937-6.621093-6.617187 0-3.660156-2.964844-6.621094-6.621094-6.621094s-6.621094 2.960938-6.621094 6.621094c0 3.65625-2.964843 6.617187-6.621093 6.617187s-6.621094-2.960937-6.621094-6.617187c0-10.972656 8.894531-19.863281 19.863281-19.863281s19.859375 8.894531 19.859375 19.863281c.003906 3.652344-2.960938 6.617187-6.617188 6.617187zm0 0" fill="#394d5c"/></svg>