<svg height="383.999pt" viewBox="1 1 383.999 383.999" width="383.999pt" xmlns="http://www.w3.org/2000/svg"><path d="m132.414062 0h119.171876c29.253906 0 52.964843 23.714844 52.964843 52.964844v331.035156h-225.101562v-331.035156c0-29.25 23.714843-52.964844 52.964843-52.964844zm0 0" fill="#cfdfe8"/><path d="m192 225.105469c29.253906 0 52.964844 23.710937 52.964844 52.964843v105.929688h-105.929688v-105.929688c0-29.253906 23.714844-52.964843 52.964844-52.964843zm0 0" fill="#f4f4e6"/><g fill="#5a6470"><path d="m79.449219 132.414062-79.449219 66.207032h79.449219zm0 0"/><path d="m304.550781 132.414062 79.449219 66.207032h-79.449219zm0 0"/><path d="m105.929688 344.277344h66.207031v39.722656h-66.207031zm0 0"/><path d="m211.863281 344.277344h66.207031v39.722656h-66.207031zm0 0"/><path d="m132.414062 0 59.585938 52.964844 59.585938-52.964844zm0 0"/></g><path d="m152.277344 145.65625h79.445312l-39.722656 52.964844zm0 0" fill="#f49e21"/><path d="m278.070312 86.070312c0 18.28125-14.824218 33.101563-33.105468 33.101563s-33.101563-14.820313-33.101563-33.101563c0-18.285156 14.820313-33.105468 33.101563-33.105468s33.105468 14.820312 33.105468 33.105468zm0 0" fill="#fff"/><path d="m139.035156 99.308594c-7.3125 0-13.242187-5.925782-13.242187-13.238282s5.929687-13.242187 13.242187-13.242187 13.242188 5.929687 13.242188 13.242187c-.011719 7.308594-5.933594 13.230469-13.242188 13.238282zm0 0" fill="#0d2436"/><path d="m244.964844 99.308594c-7.3125 0-13.242188-5.925782-13.242188-13.238282s5.929688-13.242187 13.242188-13.242187 13.242187 5.929687 13.242187 13.242187c-.007812 7.308594-5.929687 13.230469-13.242187 13.238282zm0 0" fill="#0d2436"/><path d="m132.414062 370.757812h13.242188v13.242188h-13.242188zm0 0" fill="#f49e21"/><path d="m238.34375 370.757812h13.242188v13.242188h-13.242188zm0 0" fill="#f49e21"/></svg>