<svg height="383pt" viewBox="1 -72 383.999 383" width="383pt" xmlns="http://www.w3.org/2000/svg"><path d="m0 53.464844v66.207031h52.964844v66.207031c0 14.625 11.855468 26.484375 26.484375 26.484375h26.480469v-172.140625h-92.6875c-7.3125 0-13.242188 5.929688-13.242188 13.242188zm0 0" fill="#e5a26a"/><path d="m105.929688 119.671875h264.828124c7.3125 0 13.242188 5.929687 13.242188 13.242187v13.238282c0 7.316406-5.929688 13.242187-13.242188 13.242187h-264.828124zm0 0" fill="#c8d952"/><path d="m278.070312 159.394531h-145.65625l70.621094 52.964844h75.035156zm0 0" fill="#b5554e"/><path d="m119.171875 119.671875s0-119.171875 125.792969-119.171875c125.792968 0 125.792968 119.171875 125.792968 119.171875zm0 0" fill="#55b56a"/><path d="m370.757812 159.394531h-66.207031l44.894531 33.671875c11.699219-7.554687 19.492188-19.863281 21.3125-33.671875zm0 0" fill="#b5554e"/><path d="m105.929688 159.394531v52.964844c0 14.628906 11.859374 26.484375 26.484374 26.484375h66.207032c7.3125 0 13.242187-5.925781 13.242187-13.242188 0-4.167968-1.960937-8.089843-5.296875-10.589843l-74.152344-55.617188zm0 0" fill="#d3843d"/><path d="m278.070312 159.394531v52.964844c0 14.628906 11.855469 26.484375 26.480469 26.484375h66.207031c7.3125 0 13.242188-5.925781 13.242188-13.242188 0-4.167968-1.960938-8.089843-5.296875-10.589843l-74.152344-55.617188zm0 0" fill="#d3843d"/><path d="m59.585938 60.085938h13.242187v13.242187h-13.242187zm0 0" fill="#394d5c"/><g fill="#c8d952"><path d="m344.277344 73.328125c0 10.96875-8.894532 19.859375-19.863282 19.859375s-19.863281-8.890625-19.863281-19.859375c0-10.972656 8.894531-19.863281 19.863281-19.863281s19.863282 8.890625 19.863282 19.863281zm0 0"/><path d="m291.308594 40.222656c0 7.3125-5.925782 13.242188-13.238282 13.242188s-13.242187-5.929688-13.242187-13.242188 5.929687-13.238281 13.242187-13.238281 13.238282 5.925781 13.238282 13.238281zm0 0"/><path d="m185.378906 86.566406c0 10.972656-8.890625 19.863282-19.863281 19.863282-10.96875 0-19.859375-8.890626-19.859375-19.863282 0-10.96875 8.890625-19.859375 19.859375-19.859375 10.972656 0 19.863281 8.890625 19.863281 19.859375zm0 0"/><path d="m278.070312 79.949219c0 14.625-11.859374 26.480469-26.484374 26.480469s-26.480469-11.855469-26.480469-26.480469c0-14.628907 11.855469-26.484375 26.480469-26.484375s26.484374 11.855468 26.484374 26.484375zm0 0"/><path d="m211.863281 40.222656c0 7.3125-5.929687 13.242188-13.242187 13.242188s-13.242188-5.929688-13.242188-13.242188 5.929688-13.238281 13.242188-13.238281 13.242187 5.925781 13.242187 13.238281zm0 0"/></g></svg>